<?xml version="1.0" encoding="utf-8"?>
<svg version="1.0" width="480.000000pt" height="170.000000pt" viewBox="115.504 38.122 221.68 89.204" preserveAspectRatio="xMidYMid meet" xmlns="http://www.w3.org/2000/svg" xmlns:bx="https://boxy-svg.com">
  <defs>
    <linearGradient id="color-0" gradientUnits="userSpaceOnUse" bx:pinned="true">
      <stop style="stop-color: rgb(0, 153, 168);"/>
    </linearGradient>
  </defs>
  <g transform="matrix(0.045771, 0, 0, -0.048971, 116.34431, 125.711857)" fill="#000000" stroke="none" style="">
    <path d="M2755 1689 c-488 -32 -939 -297 -1220 -719 -35 -52 -85 -137 -111 -188 -39 -78 -45 -95 -33 -104 11 -8 11 -9 -3 -5 -13 5 -23 -14 -52 -96 -42 -121 -69 -224 -61 -237 3 -5 0 -12 -5 -15 -6 -4 -10 -17 -8 -28 1 -12 -1 -27 -5 -33 -3 -6 -10 -61 -13 -123 l-7 -111 120 0 120 0 7 101 c7 101 19 182 37 252 l10 37 566 0 566 0 -6 -195 -5 -195 119 0 119 0 0 698 0 698 67 -8 c75 -9 174 -39 245 -74 26 -13 59 -24 73 -24 14 0 25 -6 26 -12 0 -7 52 -47 116 -88 68 -44 157 -115 217 -171 l101 -96 84 78 c46 43 124 106 172 141 49 35 89 70 90 78 0 10 2 11 6 2 3 -9 12 -7 31 7 88 62 288 146 393 165 l37 7 7 -153 c3 -84 5 -399 3 -701 l-3 -547 123 0 122 0 0 832 0 831 -101 -7 c-180 -11 -411 -75 -564 -154 -107 -56 -225 -130 -280 -176 -27 -23 -67 -54 -88 -70 l-38 -28 -87 83 c-291 276 -534 371 -887 348z m-105 -659 l0 -400 -520 0 c-306 0 -520 4 -520 9 0 5 18 42 41 81 22 40 38 78 35 85 -3 9 0 12 8 9 7 -3 25 13 41 38 137 206 456 445 706 527 55 18 171 47 202 50 4 1 7 -179 7 -399z m-730 280 c0 -5 -4 -10 -10 -10 -5 0 -10 5 -10 10 0 6 5 10 10 10 6 0 10 -4 10 -10z" style="stroke: rgb(0, 153, 168); fill: rgb(0, 153, 168);"/>
    <path d="M8 1143 c3 -750 2 -716 35 -788 39 -83 99 -157 171 -211 77 -58 139 -90 144 -75 2 6 8 11 14 11 6 0 8 -6 5 -14 -6 -16 55 -40 128 -51 64 -9 206 -7 261 4 113 22 262 90 248 113 -4 6 -3 8 3 5 17 -11 96 57 137 116 21 30 48 84 62 121 l24 67 0 624 0 625 -135 0 -135 0 0 -614 c0 -532 -2 -619 -16 -651 -8 -20 -10 -34 -5 -30 6 3 11 1 11 -4 0 -6 -6 -11 -13 -11 -7 0 -28 -16 -46 -35 -115 -122 -366 -138 -518 -33 -39 26 -95 96 -100 125 -2 7 -3 292 -3 633 l-1 620 -137 0 -137 0 3 -547z" style="stroke: rgb(0, 153, 168); fill: rgb(0, 153, 168);"/>
  </g>
</svg>